<svg xmlns="http://www.w3.org/2000/svg" width="32" height="32" viewBox="0 0 32 32">
    <g fill="none" fill-rule="evenodd">
        <path fill="#F5831F" d="M0 0h32v32H4c-2.21 0-4-1.79-4-4V0z"/>
        <g>
            <path d="M0 0H24V24H0z" transform="translate(4 4)"/>
            <path fill="#FFF" fill-rule="nonzero" d="M15.526 3c.617 0 1.165.243 1.559.677.342.382.53.903.53 1.441 0 .539-.188 1.042-.547 1.424-.189.209-.497.435-.942.556h3.425c.257 0 .48.208.446.486v1.754c0 .26-.223.486-.48.486h-5.31v-2.64h-.839V20h-2.74V7.185h-.84v2.64H4.48c-.257 0-.48-.226-.48-.487V7.584c0-.26.223-.486.48-.486h3.425c-.445-.121-.754-.347-.942-.556-.36-.364-.548-.885-.548-1.424C6.415 4.094 7.15 3 8.505 3c.976 0 2.02.556 3.116 1.667.137.156.274.295.394.434.12-.139.257-.295.394-.434C13.505 3.556 14.55 3 15.526 3zm-5.739 7.645v9.267H5.464c-.255 0-.477-.224-.477-.483v-8.784h4.8zm9.209 0v8.784c0 .26-.222.483-.477.483h-4.323v-9.267h4.8zM8.487 4.181c-.72 0-.907.573-.907.92 0 .434.274.886.993.886h2.637c-.736-.851-1.798-1.806-2.723-1.806zm7.04 0c-.943 0-2.004.972-2.724 1.806h2.638c.342 0 .6-.087.77-.278.137-.156.223-.365.223-.608 0-.347-.188-.92-.908-.92z" transform="translate(4 4)"/>
        </g>
    </g>
</svg>
